<mxfile host="65bd71144e" scale="3" border="0">
    <diagram id="xv7aufbwaVYyBfkCT0-F" name="ページ1">
        <mxGraphModel dx="1533" dy="600" grid="1" gridSize="10" guides="1" tooltips="1" connect="1" arrows="1" fold="1" page="1" pageScale="1" pageWidth="827" pageHeight="1169" math="0" shadow="0">
            <root>
                <mxCell id="0"/>
                <mxCell id="1" parent="0"/>
                <mxCell id="5" value="" style="edgeStyle=none;entryX=0.5;entryY=0;entryDx=0;entryDy=0;" parent="1" source="2" target="4" edge="1">
                    <mxGeometry relative="1" as="geometry"/>
                </mxCell>
                <object label="処理１" id="2">
                    <mxCell style="rounded=1;flipH=0;flipV=0;" parent="1" vertex="1">
                        <mxGeometry x="200" y="80" width="120" height="60" as="geometry"/>
                    </mxCell>
                </object>
                <mxCell id="12" value="" style="edgeStyle=orthogonalEdgeStyle;entryX=0.5;entryY=0;entryDx=0;entryDy=0;" parent="1" source="3" target="10" edge="1">
                    <mxGeometry relative="1" as="geometry"/>
                </mxCell>
                <object label="処理2" id="3">
                    <mxCell style="rounded=1;flipH=0;flipV=0;" parent="1" vertex="1">
                        <mxGeometry x="200" y="240" width="120" height="60" as="geometry"/>
                    </mxCell>
                </object>
                <mxCell id="6" value="Yes" style="edgeStyle=none;" parent="1" source="4" target="3" edge="1">
                    <mxGeometry relative="1" as="geometry">
                        <Array as="points">
                            <mxPoint x="260" y="210"/>
                        </Array>
                    </mxGeometry>
                </mxCell>
                <mxCell id="11" value="" style="exitX=1;exitY=0.5;exitDx=0;exitDy=0;edgeStyle=orthogonalEdgeStyle;" parent="1" source="4" target="10" edge="1">
                    <mxGeometry relative="1" as="geometry">
                        <mxPoint x="280" y="180" as="sourcePoint"/>
                        <Array as="points">
                            <mxPoint x="410" y="180"/>
                            <mxPoint x="410" y="340"/>
                        </Array>
                    </mxGeometry>
                </mxCell>
                <mxCell id="14" value="No" style="edgeLabel;align=center;verticalAlign=middle;resizable=0;points=[];" parent="11" vertex="1" connectable="0">
                    <mxGeometry x="-0.8531" y="-1" relative="1" as="geometry">
                        <mxPoint as="offset"/>
                    </mxGeometry>
                </mxCell>
                <mxCell id="4" value="True?" style="rhombus;" parent="1" vertex="1">
                    <mxGeometry x="227" y="160" width="66" height="40" as="geometry"/>
                </mxCell>
                <mxCell id="8" value="" style="edgeStyle=none;" parent="1" source="7" target="2" edge="1">
                    <mxGeometry relative="1" as="geometry"/>
                </mxCell>
                <mxCell id="7" value="Start" style="ellipse;flipH=0;flipV=0;" parent="1" vertex="1">
                    <mxGeometry x="220" y="10" width="80" height="30" as="geometry"/>
                </mxCell>
                <mxCell id="9" value="End" style="ellipse;flipH=0;flipV=0;" parent="1" vertex="1">
                    <mxGeometry x="220" y="390" width="80" height="30" as="geometry"/>
                </mxCell>
                <mxCell id="13" value="" style="edgeStyle=orthogonalEdgeStyle;entryX=0.5;entryY=0;entryDx=0;entryDy=0;" parent="1" source="10" target="9" edge="1">
                    <mxGeometry relative="1" as="geometry"/>
                </mxCell>
                <mxCell id="10" value="" style="rhombus;" parent="1" vertex="1">
                    <mxGeometry x="244" y="330" width="32" height="20" as="geometry"/>
                </mxCell>
            </root>
        </mxGraphModel>
    </diagram>
</mxfile>